HIERARCHY
ROOT Hips
{
  OFFSET -17.8222 7.7 127.125
  CHANNELS 6 Xposition Yposition Zposition Zrotation Xrotation Yrotation
  JOINT Spine
  {
    OFFSET 0.0 0.0 0.0
    CHANNELS 3 Zrotation Xrotation Yrotation
    JOINT Spine1
    {
      OFFSET 19.34 0.0 0.0
      CHANNELS 3 Zrotation Xrotation Yrotation
      JOINT Neck
      {
        OFFSET 19.34 0.0 0.0
        CHANNELS 3 Zrotation Xrotation Yrotation
        JOINT Head
        {
          OFFSET 0.0 0.0 0.0
          CHANNELS 3 Zrotation Xrotation Yrotation
          End Site
          {
            OFFSET 17 0 0
          }
        }
      }
      JOINT LeftShoulder
      {
        OFFSET 19.34 0.0 14.2
        CHANNELS 3 Zrotation Xrotation Yrotation
        JOINT LeftArm
        {
          OFFSET 0.0 0.0 0.0
          CHANNELS 3 Zrotation Xrotation Yrotation
          JOINT LeftForeArm
          {
            OFFSET 21.3 0.0 0.0
            CHANNELS 3 Zrotation Xrotation Yrotation
            JOINT LeftHand
            {
              OFFSET 21.3 0.0 0.0
              CHANNELS 3 Zrotation Xrotation Yrotation
              End Site
              {
                OFFSET 7.2 0 0
              }
            }
          }
        }
      }
      JOINT RightShoulder
      {
        OFFSET 19.34 0.0 -14.2
        CHANNELS 3 Zrotation Xrotation Yrotation
        JOINT RightArm
        {
          OFFSET 0.0 0.0 0.0
          CHANNELS 3 Zrotation Xrotation Yrotation
          JOINT RightForeArm
          {
            OFFSET 21.3 0.0 0.0
            CHANNELS 3 Zrotation Xrotation Yrotation
            JOINT RightHand
            {
              OFFSET 21.3 0.0 0.0
              CHANNELS 3 Zrotation Xrotation Yrotation
              End Site
              {
                OFFSET 7.2 0 0
              }
            }
          }
        }
      }
    }
  }
  JOINT LeftUpLeg
  {
    OFFSET 0.0 0.0 14.2
    CHANNELS 3 Zrotation Xrotation Yrotation
    JOINT LeftLeg
    {
      OFFSET 21.3 0.0 0.0
      CHANNELS 3 Zrotation Xrotation Yrotation
      JOINT LeftFoot
      {
        OFFSET 21.3 0.0 0.0
        CHANNELS 3 Zrotation Xrotation Yrotation
        End Site
        {
          OFFSET 0 -10.8 0
        }
      }
    }
  }
  JOINT RightUpLeg
  {
    OFFSET 0.0 0.0 -14.2
    CHANNELS 3 Zrotation Xrotation Yrotation
    JOINT RightLeg
    {
      OFFSET 21.3 0.0 0.0
      CHANNELS 3 Zrotation Xrotation Yrotation
      JOINT RightFoot
      {
        OFFSET 21.3 0.0 0.0
        CHANNELS 3 Zrotation Xrotation Yrotation
        End Site
        {
          OFFSET 0 -10.8 0
        }
      }
    }
  }
  JOINT Tail
  {
    OFFSET 0.0 0.0 0.0
    CHANNELS 3 Zrotation Xrotation Yrotation
    JOINT Tail1
    {
      OFFSET 0.0 0.0 0.0
      CHANNELS 3 Zrotation Xrotation Yrotation
      End Site
      {
        OFFSET 12 0 0
      }
    }
  }
}
MOTION
Frames:	21
Frame Time:	0.0166667
54.1526 46.4342 288.672 -7.8929 1.3647 25.0092 -152.74 1.73299 -11.8413 -27.4097 -2.55354 18.9583 -16.8796 -14.8642 19.3038 -105.157 60.4284 115.826 -112.59 -40.1175 -137.154 129.811 -41.9336 -129.351 -73.3131 -58.0603 18.3482 35.467 -1.35272 -32.6495 76.5219 -25.9922 38.5621 44.543 -54.7838 -47.3502 -70.1174 -19.8003 2.54363 -12.0505 -1.01162 8.59933 -136.32 -4.49915 -24.6302 92.3408 13.0399 7.59057 30.6595 -2.88501 -5.71345 -120.969 -0.0207912 -7.92067 69.4176 -33.2084 -3.46559 49.9663 5.90457 4.26765 -19.7595 -12.3674 57.4338 7.88506 -23.3467 21.2331 
53.6856 46.6462 289.286 -6.88696 2.11117 23.4565 -153.169 1.27707 -11.6654 -27.6618 -2.79856 18.1203 -15.8148 -14.2537 20.7737 -105.214 59.699 117.379 -112.795 -40.3782 -137.187 132.728 -38.0364 -126.361 -76.2539 -55.2795 18.1761 33.1082 -0.219053 -29.0091 77.0271 -25.0272 37.676 42.7701 -55.4669 -47.8972 -69.7971 -19.9684 2.14885 -12.7312 -1.26539 9.74258 -136.989 -3.46542 -26.8884 86.8761 14.0351 10.2475 33.6894 -3.1907 -6.17661 -119.883 -0.57187 -8.07148 67.6374 -34.485 -3.17807 49.6231 5.74955 4.23178 -18.1257 -12.0764 57.8172 8.54618 -21.0814 25.4451 
53.076 46.7897 289.898 -5.81891 2.70305 22.4492 -154.112 0.880489 -12.0689 -27.2468 -3.47173 18.9213 -14.9238 -13.4214 21.9414 -105.335 59.3561 119.022 -112.925 -40.3181 -137.597 135.309 -33.9565 -123.775 -80.3971 -45.7575 15.3636 28.1439 1.52921 -19.0261 77.5407 -24.171 37.1069 40.7507 -55.8812 -48.4769 -69.2201 -20.1159 1.51826 -13.184 -1.08507 9.26909 -136.868 -2.244 -28.4321 80.2249 15.9166 13.229 37.4939 -3.75801 -6.93378 -119.807 -0.893225 -8.01027 67.1825 -34.3819 -2.98785 50.2751 5.69955 4.06603 -16.0883 -10.934 55.9409 9.08958 -17.6765 29.1986 
52.3968 46.9285 290.47 -4.75653 3.27571 21.7468 -155.537 0.518006 -12.4087 -26.0348 -4.2577 20.2237 -14.553 -12.1085 22.8535 -106.198 59.4096 121.106 -112.854 -40.2127 -137.612 137.54 -30.6499 -122.22 -82.8822 -31.8602 13.081 18.0442 2.03851 -8.39668 77.9163 -23.3362 35.9388 38.6921 -55.8887 -48.903 -68.1046 -20.1637 1.11278 -13.9167 -1.093 9.40813 -136.165 -0.769699 -29.4255 73.635 17.5609 16.0463 40.3416 -4.41899 -7.77549 -119.656 -1.30059 -8.32385 66.6981 -33.886 -2.52892 50.7902 5.55987 3.82397 -13.9328 -9.45103 51.8449 9.42957 -13.5416 31.4381 
51.6776 47.0229 291.039 -3.89326 3.6239 21.4311 -157.24 0.264161 -12.8857 -24.0116 -5.14135 22.4891 -14.0449 -10.9667 23.5833 -107.206 59.362 122.908 -112.878 -40.1987 -137.696 139.172 -27.2822 -121.084 -81.9707 -18.4754 12.1636 4.86713 1.03341 -4.82871 78.2157 -22.6863 34.9933 36.4384 -55.5064 -49.618 -66.5043 -20.584 0.745068 -15.0398 -0.971355 8.92449 -134.952 0.524793 -29.5256 67.8475 20.2604 18.0074 42.3165 -5.19942 -8.70659 -118.991 -1.59801 -8.52465 66.1251 -33.5592 -2.25705 51.61 5.38218 3.51122 -11.92 -7.91422 45.9959 9.40963 -9.70554 31.2631 
50.9601 47.0719 291.551 -3.31802 4.01354 20.9111 -159.008 0.13434 -14.0764 -21.5282 -5.83881 25.5671 -14.1605 -9.58066 23.5876 -108.337 60.2822 124.78 -113.087 -40.3044 -138 141.416 -23.0778 -119.221 -78.3993 -14.8272 11.5751 -0.872941 1.50097 -9.55541 78.6622 -21.9753 34.457 34.585 -55.0512 -50.1174 -65.2205 -20.8398 0.515968 -15.3529 -0.572525 7.46162 -133.575 1.23378 -29.3022 64.393 22.124 18.7566 44.2274 -5.6812 -9.18098 -118.534 -1.90673 -9.28562 66.5346 -31.9944 -1.59962 51.7343 5.16979 3.23438 -10.0709 -6.90349 39.8353 8.9651 -6.72027 28.4409 
50.2531 47.1252 292.076 -2.77496 4.63887 20.1761 -161.073 0.0589231 -15.6846 -18.5872 -6.39335 29.2057 -14.199 -8.46673 23.4429 -109.155 60.9818 126.511 -113.2 -40.7621 -137.473 141.746 -18.6947 -117.43 -75.1326 -12.9606 11.2141 -1.06035 1.17184 -7.37534 79.2125 -21.0423 33.5039 32.4727 -54.3015 -50.026 -64.0652 -20.9628 0.0239431 -15.6966 -0.326999 6.56457 -132.11 2.27125 -27.5122 64.7002 20.8427 16.7532 45.0562 -5.48093 -8.93705 -118.238 -2.02673 -10.4202 66.665 -30.2531 -0.944512 52.5973 4.77658 2.70135 -9.00588 -6.49008 33.5055 8.04179 -4.98429 24.3357 
49.5675 47.169 292.629 -2.65381 5.15382 19.3915 -162.288 0.123062 -16.9375 -16.3684 -6.71807 32.4455 -13.939 -7.56907 23.2867 -110.047 62.6052 127.539 -113.405 -41.2823 -137.062 141.572 -15.8662 -117.018 -71.4335 -11.3858 10.648 -0.682858 0.985054 -6.56959 79.7831 -20.1136 32.567 30.9706 -53.7403 -49.782 -63.0397 -20.8715 -0.390466 -15.7017 -0.179576 5.94423 -130.634 3.42928 -25.2939 67.4864 18.6887 13.9753 41.9774 -4.96828 -8.60274 -117.847 -2.18589 -11.6059 67.4988 -28.7276 -0.381428 52.8975 4.43591 2.29691 -8.199 -6.37718 27.3598 7.0596 -4.0128 19.4159 
48.8058 47.188 293.184 -2.54178 5.91403 18.516 -163.629 0.529293 -18.0113 -14.1656 -6.56714 35.3992 -14.5059 -6.47283 22.343 -111.036 64.1971 129.036 -113.656 -41.9299 -136.551 141.87 -15.4042 -117.242 -68.4555 -10.3917 9.60714 -0.0396588 1.0861 -7.65073 80.3513 -19.2559 31.8321 29.602 -53.4212 -49.6868 -62.0309 -21.0015 -0.643835 -15.3879 0.0975705 4.98704 -129.566 3.8673 -23.8321 68.5028 15.4475 12.2165 41.1507 -4.36969 -7.89739 -118.106 -1.80178 -12.4515 68.8556 -25.1997 -0.356629 52.1823 3.82093 1.74101 -8.20861 -6.62731 21.1772 5.9402 -3.56667 14.2298 
48.0273 47.1148 293.726 -2.56301 7.06282 17.886 -165.097 1.42069 -18.2653 -12.1623 -5.85624 37.5469 -14.7197 -5.95786 21.4929 -111.459 65.8472 129.575 -113.934 -42.4125 -136.383 142.988 -16.083 -118.134 -65.4744 -8.47178 8.44077 0.264033 0.933134 -7.29353 80.5459 -18.7794 30.6681 29.3317 -53.1116 -49.1652 -60.5462 -21.8156 -0.686655 -15.9528 0.216084 4.71914 -128.973 3.90686 -23.4842 69.1942 13.7395 10.9936 40.2614 -3.93799 -7.31025 -118.867 -0.38519 -12.7209 70.1191 -24.7004 -1.54038 54.204 3.51131 1.26048 -8.62508 -7.24353 14.3103 4.94881 -3.08278 9.12201 
47.2387 47.0253 294.238 -2.497 8.05048 17.7066 -166.895 2.59753 -17.5931 -9.83033 -4.80769 39.3154 -15.7585 -5.50667 19.9218 -111.493 67.2712 130.054 -113.925 -42.711 -135.876 144.049 -17.5918 -118.635 -62.9988 -7.40635 7.20205 1.29023 0.821813 -6.6531 80.7555 -18.4195 30.1156 28.3762 -52.7354 -49.2548 -58.8682 -22.0591 -0.802044 -16.1577 0.309006 4.46959 -128.601 4.29107 -23.6996 70.8377 13.3524 10.0728 39.2239 -3.77404 -7.14171 -120.444 1.94241 -12.0064 72.3968 -22.311 -3.28035 55.5103 2.85122 0.555666 -9.40598 -7.52331 6.41675 4.20389 -2.40426 4.36855 
46.4078 46.9607 294.646 -2.83495 7.93221 17.7494 -167.761 3.41822 -16.2928 -7.9293 -3.96542 40.3149 -16.7421 -5.39024 18.5893 -111.066 69.0367 129.728 -113.939 -42.7682 -135.815 144.224 -19.0104 -118.629 -60.7305 -4.03669 6.19158 -0.0991162 0.432022 -4.92554 80.7439 -18.443 30.1656 27.1202 -52.631 -49.9406 -57.0123 -21.7585 -0.824008 -16.1046 0.355281 4.39415 -127.015 4.17809 -24.3565 71.3222 14.5543 10.3499 38.6222 -4.04865 -7.58807 -122.135 3.46501 -11.2734 76.9004 -18.1266 -4.13188 54.8349 1.95278 -0.179055 -9.84164 -6.68955 -1.91024 3.94514 -1.52197 0.167675 
45.5609 46.8867 294.946 -3.23308 7.2271 17.8675 -168.231 4.00356 -14.5464 -6.3699 -3.28225 40.5755 -17.8309 -5.40457 17.1316 -110.396 69.8406 128.898 -114.026 -42.8002 -135.958 143.461 -22.5005 -118.992 -62.3329 2.68716 6.19872 -6.92334 0.281231 -6.76434 80.7043 -18.6115 30.7759 26.0472 -52.1108 -51.1869 -54.6256 -22.4284 -0.721913 -16.7295 0.704177 3.43333 -125.171 3.60535 -24.889 71.4517 16.4112 10.8051 38.3635 -4.42882 -8.14471 -124.915 5.08798 -9.88265 83.3847 -12.0979 -4.54103 53.2133 1.09208 -0.889192 -10.2897 -5.06519 -10.6396 4.14881 -0.426255 -3.09978 
44.6993 46.8136 295.13 -3.55944 6.32636 17.6715 -168.46 4.41377 -13.452 -5.431 -2.90414 41.1073 -18.3652 -5.54832 15.6247 -109.516 70.3656 127.496 -113.992 -42.2719 -136.743 141.544 -23.2511 -119.23 -62.0069 4.33332 5.33943 -9.99589 1.47058 -11.9777 80.6507 -18.8473 31.62 25.8497 -52.0812 -51.7564 -53.0972 -21.8275 -0.676781 -16.1924 1.1778 1.79096 -123.493 2.93978 -25.3691 72.0647 17.3675 11.2227 38.6575 -4.68716 -8.52129 -127.591 7.01301 -7.91285 89.1613 -6.88767 -4.87331 50.7946 0.333966 -1.44775 -10.8436 -3.01745 -19.2632 4.76444 0.898803 -5.61565 
43.7965 46.7481 295.266 -3.84631 5.07003 17.5627 -168.405 4.65711 -11.9669 -4.98683 -2.82734 41.2389 -18.6128 -5.87438 14.0732 -107.873 70.8293 125.72 -113.669 -41.7178 -136.933 141.98 -24.0791 -118.364 -60.6414 7.02771 4.40453 -12.3091 1.83664 -13.2664 80.4073 -19.343 32.5625 25.338 -52.1431 -52.8138 -51.1134 -22.6595 -0.310331 -15.6661 1.80784 -0.144889 -121.754 1.91279 -25.2871 72.3384 18.5401 11.3633 38.815 -4.90959 -8.8114 -130.014 8.05382 -6.13332 93.5623 -5.07854 -5.05203 45.3792 -0.188638 -1.6486 -11.4029 -0.355038 -27.7022 5.40264 2.43585 -7.35812 
42.8427 46.6943 295.333 -4.02339 3.58647 17.3725 -168.016 4.59389 -10.6165 -5.08451 -3.18142 41.2178 -18.5817 -6.02731 12.6659 -106.443 70.7256 124.567 -113.397 -41.1881 -137.201 141.525 -25.931 -118.244 -60.7944 10.3009 3.93198 -13.7721 1.52039 -12.4614 79.8096 -20.2572 33.3366 26.1167 -52.0877 -53.9289 -50.0032 -21.5065 0.289913 -12.5667 2.74377 -4.35763 -119.867 0.675427 -24.9724 72.4032 19.7429 11.4647 38.8528 -5.08909 -9.037 -132.473 8.68874 -4.25503 96.3296 -3.16354 -5.11992 40.3624 -0.641696 -1.88786 -12.1522 2.83853 -35.6498 6.46437 4.15945 -8.47393 
41.825 46.6124 295.417 -4.21423 2.44624 17.1398 -167.155 4.6135 -9.19413 -6.28904 -3.75905 40.8109 -17.9533 -6.06606 11.7986 -105.069 71.5604 123.631 -113.339 -40.3868 -138.445 140.141 -28.3764 -119.212 -61.3219 10.7988 3.58775 -14.1001 2.15352 -14.9286 79.1281 -21.3475 34.3089 33.4868 -51.3 -52.5968 -52.4122 -19.2838 1.67189 -6.64531 3.85432 -13.0474 -118.113 -0.119993 -24.4642 72.9548 20.2431 11.0725 38.8046 -5.10847 -9.08409 -134.807 8.6696 -2.72977 96.6551 -2.67027 -5.34415 36.6968 -0.914471 -2.0488 -12.9034 5.81929 -42.8363 7.58186 5.95859 -9.01984 
40.7886 46.5638 295.519 -4.5706 1.76059 16.7552 -166.214 4.8376 -7.38482 -7.5684 -3.99239 39.5351 -17.2218 -6.05486 10.9988 -104.35 71.9156 122.754 -112.991 -39.5508 -139.106 140.09 -31.3574 -119.939 -61.4926 12.3369 3.33887 -14.9944 2.56588 -16.5458 78.296 -22.7255 35.51 42.7436 -48.202 -50.2718 -56.0641 -18.4075 2.54842 0.373466 4.38846 -25.0942 -116.01 -0.728095 -23.8611 73.1836 20.2124 10.2789 39.1965 -4.97483 -8.87511 -136.49 8.23654 -1.57492 94.3775 -3.18536 -5.71524 35.1168 -0.996639 -2.07907 -13.5141 8.23865 -48.7262 8.55736 7.7123 -9.23139 
39.7378 46.537 295.649 -4.94416 1.33752 16.0243 -165.351 5.14881 -5.82678 -8.8013 -4.0008 38.0548 -16.4401 -6.33509 10.4386 -103.516 71.7955 121.5 -112.762 -38.8427 -139.843 139.555 -34.0923 -120.512 -61.7479 12.9334 3.04106 -15.2699 2.90155 -17.8336 77.6608 -24.0077 37.0906 49.6625 -46.5835 -46.4913 -61.5944 -18.8418 2.1289 4.78753 4.31716 -34.4048 -113.913 -1.34975 -23.5597 73.6749 19.7138 9.64023 39.4518 -4.75483 -8.57793 -137.962 7.23217 -0.632949 90.7992 -3.96636 -6.09528 35.5307 -0.924882 -2.04345 -14.0871 10.0821 -52.7964 9.13333 9.44696 -9.94982 
38.6554 46.4664 295.794 -5.23372 1.5073 14.8199 -164.807 5.5933 -4.80201 -9.95759 -3.73675 36.6406 -15.5553 -6.49606 10.0997 -102.784 72.3719 120.414 -112.356 -37.9248 -140.567 138.39 -36.4342 -121.266 -61.9196 13.4863 2.91852 -15.8229 3.06143 -18.3398 77.0751 -25.0658 37.9975 52.9959 -46.4056 -42.9071 -68.2549 -15.0244 1.78411 13.2086 1.28038 -40.5426 -111.832 -1.94292 -23.78 73.8589 19.4118 9.20298 39.3202 -4.52154 -8.2679 -139.341 6.15872 -0.353387 85.9732 -5.21515 -6.45595 37.5507 -0.675354 -1.8542 -14.751 10.8967 -55.167 9.47978 11.0725 -11.4186 
37.5406 46.3468 295.961 -5.63094 1.81903 13.4666 -164.521 5.8968 -3.51041 -10.3706 -3.24266 34.6494 -14.6134 -6.69025 10.2316 -102.827 72.5777 119.476 -112.048 -37.2296 -141.134 136.5 -38.4577 -121.967 -61.8425 13.7245 2.6334 -16.5268 3.35973 -19.0788 76.2747 -26.4502 38.9283 54.1812 -46.2461 -41.303 -76.6748 -3.16579 1.41397 29.5518 -6.48317 -40.4214 -109.439 -2.54538 -23.9884 73.919 19.0921 8.87699 39.0533 -4.31574 -8.01322 -140.132 5.00713 -0.254058 80.5676 -6.59673 -6.76509 39.9409 -0.333175 -1.59698 -15.0487 11.0565 -56.3773 9.62429 12.4566 -13.4051 
